HIERARCHY
ROOT Hips
{
	OFFSET 0.000000 0.000000 0.000000
	CHANNELS 6 Xposition Yposition Zposition Zrotation Yrotation Xrotation 
	JOINT LHipJoint
	{
		OFFSET 0.000000 0.000000 0.000000
		CHANNELS 3 Zrotation Yrotation Xrotation
		JOINT LeftUpLeg
		{
			OFFSET 1.363060 -1.794630 0.839290
			CHANNELS 3 Zrotation Yrotation Xrotation
			JOINT LeftLeg
			{
				OFFSET 2.448110 -6.726130 0.000000
				CHANNELS 3 Zrotation Yrotation Xrotation
				JOINT LeftFoot
				{
					OFFSET 2.562200 -7.039590 0.000000
					CHANNELS 3 Zrotation Yrotation Xrotation
					JOINT LeftToeBase
					{
						OFFSET 0.157640 -0.433110 2.322550
						CHANNELS 3 Zrotation Yrotation Xrotation
						End Site
						{
							OFFSET 0.000000 0.000000 0.000000
						}
					}
				}
			}
		}
	}
	JOINT RHipJoint
	{
		OFFSET 0.000000 0.000000 0.000000
		CHANNELS 3 Zrotation Yrotation Xrotation
		JOINT RightUpLeg
		{
			OFFSET -1.305520 -1.794630 0.839290
			CHANNELS 3 Zrotation Yrotation Xrotation
			JOINT RightLeg
			{
				OFFSET -2.542530 -6.985550 0.000000
				CHANNELS 3 Zrotation Yrotation Xrotation
				JOINT RightFoot
				{
					OFFSET -2.568260 -7.056230 0.000000
					CHANNELS 3 Zrotation Yrotation Xrotation
					JOINT RightToeBase
					{
						OFFSET -0.164730 -0.452590 2.363150
						CHANNELS 3 Zrotation Yrotation Xrotation
						End Site
						{
							OFFSET 0.000000 0.000000 0.000000
						}
					}
				}
			}
		}
	}
	JOINT LowerBack
	{
		OFFSET 0.000000 0.000000 0.000000
		CHANNELS 3 Zrotation Yrotation Xrotation
		JOINT Spine
		{
			OFFSET 0.028270 2.035590 -0.193380
			CHANNELS 3 Zrotation Yrotation Xrotation
			JOINT Spine1
			{
				OFFSET 0.056720 2.048850 -0.042750
				CHANNELS 3 Zrotation Yrotation Xrotation
				JOINT Neck
				{
					OFFSET 0.000000 0.000000 0.000000
					CHANNELS 3 Zrotation Yrotation Xrotation
					JOINT Neck1
					{
						OFFSET -0.054170 1.746240 0.172020
						CHANNELS 3 Zrotation Yrotation Xrotation
						JOINT Head
						{
							OFFSET 0.104070 1.761360 -0.123970
							CHANNELS 3 Zrotation Yrotation Xrotation
							End Site
							{
								OFFSET 0.000000 0.000000 0.000000
							}
						}
					}
				}
				JOINT LeftShoulder
				{
					OFFSET 0.000000 0.000000 0.000000
					CHANNELS 3 Zrotation Yrotation Xrotation
					JOINT LeftArm
					{
						OFFSET 3.362410 1.200890 -0.311210
						CHANNELS 3 Zrotation Yrotation Xrotation
						JOINT LeftForeArm
						{
							OFFSET 4.983000 -0.000000 -0.000000
							CHANNELS 3 Zrotation Yrotation Xrotation
							JOINT LeftHand
							{
								OFFSET 3.483560 -0.000000 -0.000000
								CHANNELS 3 Zrotation Yrotation Xrotation
								JOINT LeftFingerBase
								{
									OFFSET 0.000000 0.000000 0.000000
									CHANNELS 3 Zrotation Yrotation Xrotation
									JOINT LeftHandIndex1
									{
										OFFSET 0.715260 -0.000000 -0.000000
										CHANNELS 3 Zrotation Yrotation Xrotation
										End Site
										{
											OFFSET 0.000000 0.000000 0.000000
										}
									}
								}
								JOINT LThumb
								{
									OFFSET 0.000000 0.000000 0.000000
									CHANNELS 3 Zrotation Yrotation Xrotation
									End Site
									{
										OFFSET 0.000000 0.000000 0.000000
									}
								}
							}
						}
					}
				}
				JOINT RightShoulder
				{
					OFFSET 0.000000 0.000000 0.000000
					CHANNELS 3 Zrotation Yrotation Xrotation
					JOINT RightArm
					{
						OFFSET -3.136600 1.374050 -0.404650
						CHANNELS 3 Zrotation Yrotation Xrotation
						JOINT RightForeArm
						{
							OFFSET -5.241900 -0.000000 -0.000000
							CHANNELS 3 Zrotation Yrotation Xrotation
							JOINT RightHand
							{
								OFFSET -3.444170 -0.000000 -0.000000
								CHANNELS 3 Zrotation Yrotation Xrotation
								JOINT RightFingerBase
								{
									OFFSET 0.000000 0.000000 0.000000
									CHANNELS 3 Zrotation Yrotation Xrotation
									JOINT RightHandIndex1
									{
										OFFSET -0.622530 -0.000000 -0.000000
										CHANNELS 3 Zrotation Yrotation Xrotation
										End Site
										{
											OFFSET 0.000000 0.000000 0.000000
										}
									}
								}
								JOINT RThumb
								{
									OFFSET 0.000000 0.000000 0.000000
									CHANNELS 3 Zrotation Yrotation Xrotation
									End Site
									{
										OFFSET 0.000000 0.000000 0.000000
									}
								}
							}
						}
					}
				}
			}
		}
	}
}
MOTION
Frames: 9
Frame Time: 0.008333
-21.378600 16.196270 -0.829229 12.604955 85.922506 37.821209 -8.729182 -1.967397 2.905215 -3.801882 -7.993538 -61.151286 -0.724465 1.578026 35.847208 1.862393 9.147322 0.197420 1.912401 -0.000000 -31.325200 10.421823 -2.866270 -2.741677 3.963772 -7.079807 0.576939 1.702540 -1.059039 16.787288 -0.809460 -3.926969 0.181715 -0.788100 -0.000000 -84.759200 -9.055028 0.250618 1.310141 -2.767907 0.679972 -2.711022 -6.403515 0.584789 0.799983 8.688411 -1.135040 -4.603248 -3.378499 -0.282399 0.584358 0.000000 0.000000 0.000000 -5.635788 10.443921 2.103848 -55.134817 21.547267 15.575024 -3.838522 -29.606971 -0.016404 -4.459340 4.011576 -0.158038 -0.091338 -0.125574 -0.000000 0.000000 0.000000 0.000000 0.000000 0.000000 0.000000 14.348120 2.400061 1.367694 49.913274 21.639666 11.726036 1.974147 52.871889 0.018627 3.488849 7.080218 0.222013 0.027270 -0.229480 0.000000 0.000000 0.000000 0.000000 0.000000 0.000000 0.000000 
-21.180864 16.209661 -0.853008 14.797727 86.032432 39.815067 -8.678437 -1.942214 2.793684 -4.332614 -7.993606 -60.645178 -0.713460 1.620357 36.935998 1.872146 9.164686 -0.504679 1.779400 0.000000 -31.229200 10.668931 -2.975182 -2.851309 3.348369 -7.946960 -0.270626 1.517997 -1.380177 19.171587 -0.787711 -3.885415 2.596361 -0.921100 0.000000 -86.915200 -9.277014 0.222649 1.459474 -2.830599 0.660852 -2.692796 -6.467550 0.566545 0.767496 8.835670 -1.063691 -4.563383 -3.420362 -0.285470 0.589552 0.000000 0.000000 0.000000 -5.625575 10.293353 2.138346 -55.160047 20.916121 15.426254 -3.867571 -29.204222 -0.016469 -4.523869 4.074448 -0.162637 -0.091979 -0.122792 -0.000000 0.000000 0.000000 0.000000 0.000000 0.000000 0.000000 14.631749 2.451149 1.342759 50.537913 21.258396 11.678230 1.990681 52.514468 0.018412 3.424360 7.121324 0.219018 0.027974 -0.228172 0.000000 0.000000 0.000000 0.000000 0.000000 0.000000 0.000000 
-20.984396 16.226037 -0.876866 17.071524 86.147882 41.860191 -8.619123 -1.901140 2.666995 -4.923181 -7.928627 -60.011098 -0.728594 1.649039 37.868968 1.872436 9.112671 -1.356179 1.609300 -0.000000 -31.315500 10.931242 -3.053659 -2.971678 2.735885 -8.885703 -1.208898 1.307910 -1.685178 21.680683 -0.820691 -4.029589 5.127753 -1.075099 0.000000 -88.268800 -9.467093 0.193232 1.640212 -2.886774 0.638043 -2.669342 -6.529910 0.544878 0.730850 8.968059 -0.984166 -4.517364 -3.462241 -0.288538 0.596092 0.000000 0.000000 0.000000 -5.615056 10.112296 2.175744 -55.184413 20.237389 15.384683 -3.893696 -28.847704 -0.016558 -4.614435 4.142067 -0.168535 -0.092457 -0.119762 -0.000000 0.000000 0.000000 0.000000 0.000000 0.000000 0.000000 14.900510 2.504511 1.319702 51.188650 20.866099 11.661294 2.008943 52.104753 0.018211 3.380707 7.155212 0.217121 0.028412 -0.226383 0.000000 0.000000 0.000000 0.000000 0.000000 0.000000 0.000000 
-20.789991 16.245126 -0.901021 19.352299 86.265699 43.886327 -8.554882 -1.843449 2.528172 -5.553345 -7.801463 -59.255465 -0.765661 1.665463 38.647150 1.864946 9.000618 -2.313252 1.413000 0.000000 -31.551100 11.199198 -3.093367 -3.098959 2.145554 -9.861570 -2.223622 1.080434 -1.964793 24.295837 -0.913921 -4.407583 7.691827 -1.280500 0.000000 -88.606499 -9.619051 0.163621 1.847264 -2.934745 0.612586 -2.641765 -6.590561 0.520672 0.689553 9.085179 -0.898443 -4.463884 -3.504036 -0.291620 0.604542 0.000000 0.000000 0.000000 -5.610176 9.892953 2.214902 -55.205892 19.527739 15.440010 -3.916207 -28.553575 -0.016660 -4.725650 4.215568 -0.175532 -0.092786 -0.116549 -0.000000 0.000000 0.000000 0.000000 0.000000 0.000000 0.000000 15.154245 2.557640 1.300161 51.853504 20.470038 11.679797 2.029240 51.643195 0.018035 3.359411 7.182676 0.216421 0.028609 -0.224119 0.000000 0.000000 0.000000 0.000000 0.000000 0.000000 0.000000 
-20.597859 16.266526 -0.926028 21.442177 86.385208 45.704609 -8.498120 -1.771584 2.384028 -6.183106 -7.612418 -58.401770 -0.818509 1.673080 39.281325 1.850641 8.832798 -3.330538 1.200900 -0.000001 -31.891900 11.450418 -3.090823 -3.228247 1.620400 -10.825749 -3.297386 0.847896 -2.211181 26.986732 -1.067314 -5.067953 10.180780 -1.577499 0.000000 -87.765099 -9.718284 0.135685 2.069961 -2.970677 0.585908 -2.611931 -6.648736 0.495176 0.644766 9.183732 -0.806359 -4.403228 -3.545294 -0.294690 0.615222 0.000000 0.000000 0.000000 -5.618320 9.639530 2.254918 -55.227166 18.788530 15.579368 -3.934676 -28.325491 -0.016757 -4.850170 4.292049 -0.183227 -0.093021 -0.113155 -0.000000 0.000000 0.000000 0.000000 0.000000 0.000000 0.000000 15.386805 2.611061 1.284492 52.521531 20.072733 11.731331 2.051814 51.133746 0.017899 3.367133 7.202440 0.217420 0.028526 -0.221354 0.000000 0.000000 0.000000 0.000000 0.000000 0.000000 0.000000 
-20.408308 16.290251 -0.950670 23.686048 86.506108 47.659909 -8.428963 -1.683100 2.232144 -6.836957 -7.390636 -57.436610 -0.885584 1.666873 39.758315 1.832510 8.636946 -4.356202 0.988101 -0.000000 -32.273600 11.708253 -3.041376 -3.359455 1.119246 -11.781037 -4.435376 0.622903 -2.428033 29.757584 -1.269651 -5.986295 12.474123 -1.982900 -0.000000 -85.708400 -9.789203 0.104359 2.312103 -2.999621 0.554357 -2.576513 -6.702410 0.465025 0.604831 9.271615 -0.708121 -4.343014 -3.584247 -0.297490 0.625478 0.000000 0.000000 0.000000 -5.612485 9.400992 2.297542 -55.242653 17.941420 15.870798 -3.948666 -28.127454 -0.016754 -4.962830 4.361159 -0.190318 -0.093191 -0.109332 -0.000000 0.000000 0.000000 0.000000 0.000000 0.000000 0.000000 15.599764 2.664076 1.266574 53.204145 19.676667 11.800822 2.074562 50.577132 0.017773 3.397783 7.220591 0.219916 0.028069 -0.218204 0.000000 0.000000 0.000000 0.000000 0.000000 0.000000 0.000000 
-20.221383 16.316087 -0.976075 25.719268 86.630579 49.404023 -8.371467 -1.584093 2.085058 -7.451451 -7.132401 -56.406706 -0.959078 1.653160 40.099868 1.810349 8.409702 -5.353997 0.781600 -0.000000 -32.650900 11.934972 -2.953768 -3.486772 0.714895 -12.669311 -5.618706 0.418473 -2.614043 32.554454 -1.509576 -7.180881 14.445824 -2.521600 -0.000001 -82.536700 -9.805743 0.073483 2.553742 -3.015806 0.520860 -2.541543 -6.754278 0.432625 0.563007 9.346494 -0.612421 -4.277322 -3.622563 -0.300274 0.637844 0.000000 0.000000 0.000000 -5.621902 9.124959 2.339462 -55.252984 17.077632 16.216139 -3.957858 -28.012696 -0.016701 -5.068455 4.427604 -0.197207 -0.093323 -0.105375 -0.000000 0.000000 0.000000 0.000000 0.000000 0.000000 0.000000 15.798220 2.707017 1.253644 53.876214 19.287068 11.899727 2.100044 49.975700 0.017684 3.452489 7.234182 0.223810 0.027473 -0.214614 0.000000 0.000000 0.000000 0.000000 0.000000 0.000000 0.000000 
-20.036836 16.344206 -1.001685 27.674124 86.758666 51.075183 -8.319220 -1.475228 1.945133 -8.026636 -6.857759 -55.320045 -1.036387 1.630665 40.304338 1.785782 8.167882 -6.289525 0.590100 -0.000000 -32.975500 12.136681 -2.834827 -3.609210 0.399605 -13.481523 -6.848588 0.241676 -2.778074 35.353564 -1.769243 -8.593136 15.989940 -3.174300 0.000000 -78.528999 -9.778700 0.040880 2.790690 -3.021683 0.483985 -2.506866 -6.804211 0.396599 0.522532 9.413658 -0.520466 -4.209733 -3.659714 -0.302954 0.651203 0.000000 0.000000 0.000000 -5.635854 8.830587 2.381170 -55.253743 16.169943 16.626023 -3.962183 -27.969785 -0.016548 -5.151284 4.484074 -0.202791 -0.093454 -0.101196 -0.000000 0.000000 0.000000 0.000000 0.000000 0.000000 0.000000 15.985566 2.738679 1.243281 54.542112 18.901354 12.014130 2.127438 49.331040 0.017613 3.525275 7.245637 0.228803 0.026754 -0.210660 0.000000 0.000000 0.000000 0.000000 0.000000 0.000000 0.000000 
-19.854874 16.374787 -1.027259 29.559898 86.889251 52.690963 -8.272960 -1.358625 1.816109 -8.551524 -6.579045 -54.192463 -1.114920 1.599960 40.373772 1.759792 7.921854 -7.140244 0.418500 0.000000 -33.217700 12.310798 -2.694808 -3.724453 0.181586 -14.199395 -8.122867 0.094018 -2.928681 38.117858 -2.031852 -10.148175 17.035889 -3.896400 -0.000000 -74.073600 -9.712127 0.006098 3.015406 -3.018295 0.443659 -2.473124 -6.852583 0.356908 0.486548 9.476719 -0.438436 -4.144549 -3.695648 -0.305482 0.664430 0.000000 0.000000 0.000000 -5.650830 8.531593 2.422078 -55.242207 15.201923 17.090926 -3.961908 -27.991180 -0.016270 -5.200775 4.523710 -0.206271 -0.093638 -0.096753 -0.000000 0.000000 0.000000 0.000000 0.000000 0.000000 0.000000 16.166112 2.753162 1.234390 55.200884 18.522668 12.136165 2.156648 48.642594 0.017545 3.609125 7.256906 0.234595 0.026000 -0.206391 0.000000 0.000000 0.000000 0.000000 0.000000 0.000000 0.000000 
